HIERARCHY
ROOT Hips
{
	OFFSET 0.000000 0.000000 0.000000
	CHANNELS 6 Xposition Yposition Zposition Zrotation Yrotation Xrotation 
	JOINT LHipJoint
	{
		OFFSET 0.000000 0.000000 0.000000
		CHANNELS 3 Zrotation Yrotation Xrotation
		JOINT LeftUpLeg
		{
			OFFSET 1.363060 -1.794630 0.839290
			CHANNELS 3 Zrotation Yrotation Xrotation
			JOINT LeftLeg
			{
				OFFSET 2.448110 -6.726130 0.000000
				CHANNELS 3 Zrotation Yrotation Xrotation
				JOINT LeftFoot
				{
					OFFSET 2.562200 -7.039590 0.000000
					CHANNELS 3 Zrotation Yrotation Xrotation
					JOINT LeftToeBase
					{
						OFFSET 0.157640 -0.433110 2.322550
						CHANNELS 3 Zrotation Yrotation Xrotation
						End Site
						{
							OFFSET 0.000000 0.000000 0.000000
						}
					}
				}
			}
		}
	}
	JOINT RHipJoint
	{
		OFFSET 0.000000 0.000000 0.000000
		CHANNELS 3 Zrotation Yrotation Xrotation
		JOINT RightUpLeg
		{
			OFFSET -1.305520 -1.794630 0.839290
			CHANNELS 3 Zrotation Yrotation Xrotation
			JOINT RightLeg
			{
				OFFSET -2.542530 -6.985550 0.000000
				CHANNELS 3 Zrotation Yrotation Xrotation
				JOINT RightFoot
				{
					OFFSET -2.568260 -7.056230 0.000000
					CHANNELS 3 Zrotation Yrotation Xrotation
					JOINT RightToeBase
					{
						OFFSET -0.164730 -0.452590 2.363150
						CHANNELS 3 Zrotation Yrotation Xrotation
						End Site
						{
							OFFSET 0.000000 0.000000 0.000000
						}
					}
				}
			}
		}
	}
	JOINT LowerBack
	{
		OFFSET 0.000000 0.000000 0.000000
		CHANNELS 3 Zrotation Yrotation Xrotation
		JOINT Spine
		{
			OFFSET 0.028270 2.035590 -0.193380
			CHANNELS 3 Zrotation Yrotation Xrotation
			JOINT Spine1
			{
				OFFSET 0.056720 2.048850 -0.042750
				CHANNELS 3 Zrotation Yrotation Xrotation
				JOINT Neck
				{
					OFFSET 0.000000 0.000000 0.000000
					CHANNELS 3 Zrotation Yrotation Xrotation
					JOINT Neck1
					{
						OFFSET -0.054170 1.746240 0.172020
						CHANNELS 3 Zrotation Yrotation Xrotation
						JOINT Head
						{
							OFFSET 0.104070 1.761360 -0.123970
							CHANNELS 3 Zrotation Yrotation Xrotation
							End Site
							{
								OFFSET 0.000000 0.000000 0.000000
							}
						}
					}
				}
				JOINT LeftShoulder
				{
					OFFSET 0.000000 0.000000 0.000000
					CHANNELS 3 Zrotation Yrotation Xrotation
					JOINT LeftArm
					{
						OFFSET 3.362410 1.200890 -0.311210
						CHANNELS 3 Zrotation Yrotation Xrotation
						JOINT LeftForeArm
						{
							OFFSET 4.983000 -0.000000 -0.000000
							CHANNELS 3 Zrotation Yrotation Xrotation
							JOINT LeftHand
							{
								OFFSET 3.483560 -0.000000 -0.000000
								CHANNELS 3 Zrotation Yrotation Xrotation
								JOINT LeftFingerBase
								{
									OFFSET 0.000000 0.000000 0.000000
									CHANNELS 3 Zrotation Yrotation Xrotation
									JOINT LeftHandIndex1
									{
										OFFSET 0.715260 -0.000000 -0.000000
										CHANNELS 3 Zrotation Yrotation Xrotation
										End Site
										{
											OFFSET 0.000000 0.000000 0.000000
										}
									}
								}
								JOINT LThumb
								{
									OFFSET 0.000000 0.000000 0.000000
									CHANNELS 3 Zrotation Yrotation Xrotation
									End Site
									{
										OFFSET 0.000000 0.000000 0.000000
									}
								}
							}
						}
					}
				}
				JOINT RightShoulder
				{
					OFFSET 0.000000 0.000000 0.000000
					CHANNELS 3 Zrotation Yrotation Xrotation
					JOINT RightArm
					{
						OFFSET -3.136600 1.374050 -0.404650
						CHANNELS 3 Zrotation Yrotation Xrotation
						JOINT RightForeArm
						{
							OFFSET -5.241900 -0.000000 -0.000000
							CHANNELS 3 Zrotation Yrotation Xrotation
							JOINT RightHand
							{
								OFFSET -3.444170 -0.000000 -0.000000
								CHANNELS 3 Zrotation Yrotation Xrotation
								JOINT RightFingerBase
								{
									OFFSET 0.000000 0.000000 0.000000
									CHANNELS 3 Zrotation Yrotation Xrotation
									JOINT RightHandIndex1
									{
										OFFSET -0.622530 -0.000000 -0.000000
										CHANNELS 3 Zrotation Yrotation Xrotation
										End Site
										{
											OFFSET 0.000000 0.000000 0.000000
										}
									}
								}
								JOINT RThumb
								{
									OFFSET 0.000000 0.000000 0.000000
									CHANNELS 3 Zrotation Yrotation Xrotation
									End Site
									{
										OFFSET 0.000000 0.000000 0.000000
									}
								}
							}
						}
					}
				}
			}
		}
	}
}
MOTION
Frames: 5
Frame Time: 0.008333
8.155278 18.116095 0.095919 -1.352879 -58.539253 5.490640 -2.801436 -3.598782 -0.688424 -4.866454 0.320400 1.875309 -0.658990 1.831582 2.818569 -0.251387 4.325073 0.635467 2.376500 9.609900 27.722500 -2.376650 3.141399 -5.034280 21.758249 7.304906 18.483226 -0.188829 0.352428 -3.718653 -0.311109 -6.440131 -16.319947 -0.210500 -2.954200 8.151300 5.214353 4.009284 1.441971 -1.056888 4.891365 -5.743667 -7.213076 2.446260 1.331815 -1.250122 3.232879 -7.728064 0.418270 4.788586 14.961727 0.145300 2.580800 3.443200 -0.584558 -8.645509 2.522040 -83.394167 -4.786499 8.208898 12.317642 -16.137108 -2.110043 0.621167 0.768624 -6.790873 33.062374 -9.876232 -6.762800 -7.125000 0.000000 0.000000 3.686600 17.287000 -2.429600 0.047402 9.551506 2.584171 91.938815 -7.735920 7.969681 -13.816777 16.966391 -3.385551 1.832000 0.967528 1.355993 -7.735315 -37.708752 5.968000 7.125000 0.000000 0.000000 33.348700 -65.978800 -17.736200 
8.193941 18.075662 0.087950 -0.441846 -58.769751 4.783651 -2.883038 -3.552831 -0.670044 -5.772813 -1.396417 3.167344 -0.753232 1.343530 1.374108 -0.447726 5.433056 -1.076822 0.025300 -1.026900 -2.822900 -2.324100 3.156401 -5.045659 20.746803 6.646312 18.017526 -0.081146 0.250342 -3.420012 -0.268306 -8.339107 -17.988639 -0.081400 -1.840100 5.064100 4.718246 3.999034 1.438996 -1.178892 4.896674 -5.727023 -7.138041 2.443908 1.319728 -1.068672 3.410368 -8.502838 0.687728 4.998947 14.864376 0.205900 2.705600 3.575600 -0.592446 -8.608932 2.521042 -83.511987 -4.488213 9.726436 13.695068 -17.996133 -2.383138 0.578109 0.720060 -9.708488 28.697866 -10.211935 -5.787000 -7.125000 0.000000 0.000000 0.637500 17.582700 -0.415200 0.053949 9.538859 2.596386 91.460826 -8.215861 11.723810 -14.739135 17.969137 -3.480939 1.538994 1.199524 1.552336 1.375912 -35.583025 0.065100 7.125000 0.000000 0.000000 40.593400 -62.097900 -18.492800 
8.232505 18.013487 0.074768 -0.936727 -58.735599 5.199407 -2.915865 -3.501809 -0.665420 -5.857102 -3.008416 4.470175 -0.822703 0.863913 0.055308 -0.630565 6.387705 -2.969534 0.342700 -3.761600 -10.406800 -2.311420 3.118976 -5.010221 20.997442 6.461383 17.894742 0.059843 0.177156 -3.248128 -0.163358 -10.935309 -20.156772 -0.019500 -0.901100 2.476700 4.866017 3.975337 1.560946 -1.076848 4.875322 -5.706617 -7.107601 2.436020 1.290232 -0.942144 3.571497 -8.833394 0.879284 5.178666 14.125188 0.235100 2.803100 3.434100 -0.590377 -8.575813 2.524529 -83.507109 -3.944431 12.389889 15.387239 -20.242916 -2.823811 0.552489 0.645941 -13.740786 24.652006 -11.099772 -5.155600 -7.125000 0.000000 0.000000 -2.236400 17.204600 1.476000 0.057032 9.496703 2.625129 90.844350 -8.848488 15.390091 -15.927069 19.309380 -3.764807 1.386283 1.257671 1.615078 4.333543 -34.093831 -1.744100 7.125000 0.000000 0.000000 41.916500 -60.277100 -17.391100 
8.270381 17.926717 0.053813 -0.802085 -58.691226 5.000534 -2.947374 -3.462376 -0.655558 -6.225589 -3.953205 5.386714 -0.847372 0.506614 -0.958469 -0.686957 6.688936 -4.096690 0.016900 -0.840300 -2.309600 -2.265921 3.134341 -5.003404 21.058262 6.547445 18.253780 0.209695 0.225558 -3.341548 0.001579 -13.919959 -22.700224 -0.001000 -0.206000 0.566100 4.543591 3.896688 1.714907 -0.959315 4.807619 -5.660235 -6.782669 2.409003 1.265022 -0.468531 3.625349 -8.823554 0.313952 5.321595 13.016788 -0.011700 2.856800 3.144400 -0.594759 -8.492152 2.517297 -83.539531 -3.180763 15.704536 17.329426 -22.770041 -3.452549 0.562010 0.553306 -18.090248 20.996680 -12.662575 -4.791400 -7.125000 0.000000 0.000000 -4.843700 16.076400 3.325000 0.048597 9.483391 2.683525 89.981373 -9.500837 19.228417 -17.349493 20.936125 -4.221645 1.279097 1.298406 0.950338 5.700240 -33.693350 -2.570500 7.125000 0.000000 0.000000 42.875900 -59.659900 -17.236900 
8.307273 17.826568 0.024693 0.395283 -58.696339 3.944238 -3.019322 -3.419974 -0.632374 -7.121730 -4.941975 6.090955 -0.846858 0.234818 -1.783323 -0.577188 6.049823 -5.260315 1.814800 8.469200 24.148700 -2.195029 3.200188 -5.020301 20.693032 6.933068 18.742460 0.354710 0.229899 -3.253867 0.191681 -16.798357 -25.268733 -0.003400 0.375100 -1.030800 3.589921 3.789208 1.782193 -0.939927 4.719032 -5.607954 -6.224717 2.369191 1.269966 0.352788 3.660652 -8.532728 -0.838475 5.504703 11.747688 -0.479000 2.919800 2.786200 -0.608052 -8.379820 2.501310 -83.561722 -2.448077 18.528091 19.029279 -24.960245 -4.099633 0.641506 0.426018 -20.499945 16.954267 -15.362244 -4.471300 -7.125000 0.000000 0.000000 -7.694700 13.863400 5.679300 0.032087 9.510862 2.746305 89.108430 -9.825807 22.306409 -18.608159 22.386469 -4.715667 1.260708 1.297418 0.477453 5.372675 -34.466552 -2.430400 7.125000 0.000000 0.000000 43.440100 -60.300200 -18.195500 
